<svg width="386" height="419" viewBox="0 0 386 419" fill="none" xmlns="http://www.w3.org/2000/svg">
<path d="M319.401 390.94C338.801 381.14 354.601 369.24 365.801 355.94C377.101 342.54 383.601 328.04 385.001 313.24C386.401 298.44 382.601 283.54 373.901 269.64C365.201 255.64 351.701 242.84 334.301 231.94C316.901 221.04 295.801 212.24 272.401 206.04C249.001 199.94 223.701 196.54 197.901 196.14C172.201 195.74 146.601 198.34 122.601 203.74C98.6008 209.14 76.8008 217.24 58.3008 227.64L125.201 267.34C134.501 262.14 145.401 258.04 157.501 255.34C169.501 252.64 182.401 251.34 195.301 251.54C208.201 251.74 220.901 253.44 232.701 256.54C244.501 259.64 255.001 264.04 263.801 269.54C272.601 275.04 279.301 281.44 283.701 288.44C288.101 295.44 290.001 302.94 289.301 310.34C288.601 317.74 285.301 325.04 279.701 331.74C274.001 338.44 266.101 344.44 256.401 349.34L319.401 390.94Z" fill="url(#paint0_linear_170_792)"/>
<g filter="url(#filter0_i_170_792)">
<path d="M319.401 251.94C338.801 242.14 354.601 230.24 365.801 216.94C377.101 203.54 383.601 189.04 385.001 174.24C386.401 159.44 382.601 144.54 373.901 130.64C365.201 116.64 351.701 103.84 334.301 92.9401C316.901 81.9401 295.901 73.1401 272.401 66.9401C249.001 60.8401 223.701 57.4401 197.901 57.0401C172.201 56.6401 146.601 59.2401 122.601 64.6401C98.6008 70.0401 76.8008 78.1401 58.3008 88.5401L125.201 128.24C134.501 123.04 145.401 118.94 157.501 116.24C169.501 113.54 182.401 112.24 195.301 112.44C208.201 112.64 220.901 114.34 232.701 117.44C244.501 120.54 255.001 124.94 263.801 130.44C272.601 135.94 279.301 142.34 283.701 149.34C288.101 156.34 290.001 163.84 289.301 171.24C288.601 178.64 285.301 185.94 279.701 192.64C274.001 199.34 266.101 205.34 256.401 210.24L319.401 251.94Z" fill="url(#paint1_linear_170_792)"/>
<path d="M319.401 251.94C338.801 242.14 354.601 230.24 365.801 216.94C377.101 203.54 383.601 189.04 385.001 174.24C386.401 159.44 382.601 144.54 373.901 130.64C365.201 116.64 351.701 103.84 334.301 92.9401C316.901 81.9401 295.901 73.1401 272.401 66.9401C249.001 60.8401 223.701 57.4401 197.901 57.0401C172.201 56.6401 146.601 59.2401 122.601 64.6401C98.6008 70.0401 76.8008 78.1401 58.3008 88.5401L125.201 128.24C134.501 123.04 145.401 118.94 157.501 116.24C169.501 113.54 182.401 112.24 195.301 112.44C208.201 112.64 220.901 114.34 232.701 117.44C244.501 120.54 255.001 124.94 263.801 130.44C272.601 135.94 279.301 142.34 283.701 149.34C288.101 156.34 290.001 163.84 289.301 171.24C288.601 178.64 285.301 185.94 279.701 192.64C274.001 199.34 266.101 205.34 256.401 210.24L319.401 251.94Z" fill="url(#paint2_linear_170_792)"/>
</g>
<g opacity="0.85" filter="url(#filter1_ii_170_792)">
<path d="M343.101 237.64C352.001 231.24 359.601 224.34 365.801 216.94C377.101 203.54 383.601 189.04 385.001 174.24C385.101 173.04 385.201 171.74 385.201 170.54V307.44V311.74C385.201 312.24 385.101 312.74 385.101 313.24C383.701 328.04 377.201 342.64 365.901 355.94C354.601 369.24 338.901 381.24 319.501 390.94H319.401L319.301 390.84V390.94V390.84V251.84L319.401 251.94C328.101 247.64 336.001 242.84 343.101 237.64Z" fill="url(#paint3_linear_170_792)"/>
<path d="M343.101 237.64C352.001 231.24 359.601 224.34 365.801 216.94C377.101 203.54 383.601 189.04 385.001 174.24C385.101 173.04 385.201 171.74 385.201 170.54V307.44V311.74C385.201 312.24 385.101 312.74 385.101 313.24C383.701 328.04 377.201 342.64 365.901 355.94C354.601 369.24 338.901 381.24 319.501 390.94H319.401L319.301 390.84V390.94V390.84V251.84L319.401 251.94C328.101 247.64 336.001 242.84 343.101 237.64Z" fill="url(#paint4_linear_170_792)"/>
</g>
<path opacity="0.85" d="M289.3 171.24C288.6 178.74 285.3 185.94 279.7 192.64C276.1 196.84 271.6 200.84 266.3 204.44C263.3 206.54 259.9 208.44 256.4 210.24V265.14C249.3 261.54 241.4 258.64 232.8 256.34C221 253.24 208.3 251.54 195.4 251.34C184.9 251.14 174.5 251.94 164.5 253.74C162.2 254.14 159.9 254.64 157.6 255.14C145.6 257.84 134.6 261.94 125.4 267.14V128.14C134.7 122.94 145.6 118.84 157.7 116.14C160 115.64 162.3 115.14 164.6 114.74C174.6 112.94 185 112.14 195.5 112.34C208.4 112.54 221.1 114.24 232.9 117.34C241.5 119.54 249.4 122.54 256.5 126.14C259.1 127.44 261.6 128.84 264 130.34C272.8 135.84 279.5 142.24 283.9 149.24C288.1 156.34 290 163.74 289.3 171.24Z" fill="url(#paint5_linear_170_792)"/>
<g opacity="0.85" filter="url(#filter2_i_170_792)">
<path d="M256.301 210.24V349.24L319.301 390.94L319.401 251.94L256.301 210.24Z" fill="url(#paint6_linear_170_792)"/>
</g>
<g opacity="0.85" filter="url(#filter3_i_170_792)">
<path d="M125.3 267.14L58.4004 227.44V88.4401L125.3 128.14" fill="url(#paint7_linear_170_792)"/>
</g>
<path d="M301.301 399.04C307.601 396.54 313.701 393.84 319.401 390.94L256.301 349.24C253.401 350.74 250.401 352.04 247.201 353.34L301.301 399.04Z" fill="url(#paint8_linear_170_792)"/>
<g opacity="0.85" filter="url(#filter4_i_170_792)">
<path d="M301.301 364.24C307.601 361.74 313.701 359.04 319.401 356.14L256.301 314.44C253.401 315.94 250.401 317.24 247.201 318.54L301.301 364.24Z" fill="url(#paint9_linear_170_792)"/>
</g>
<g opacity="0.85" filter="url(#filter5_ii_170_792)">
<path d="M319.401 390.94C313.601 393.84 307.601 396.54 301.301 399.04V379.04V364.34L319.401 356.24V390.94Z" fill="url(#paint10_linear_170_792)"/>
</g>
<path opacity="0.85" d="M247.201 318.54V353.34L301.401 399.04L301.301 364.24L247.201 318.54Z" fill="url(#paint11_linear_170_792)"/>
<path opacity="0.5" d="M247.202 284.54V353.24C233.502 358.64 217.602 361.94 201.102 362.74V294.04C217.702 293.24 233.502 289.94 247.202 284.54Z" fill="url(#paint12_linear_170_792)"/>
<path opacity="0.5" d="M301.401 330.24V399.04L247.201 353.24V284.54L282.201 314.14L301.401 330.24Z" fill="url(#paint13_linear_170_792)"/>
<path d="M209.601 417.94C242.501 416.24 274.101 409.74 301.401 399.04L247.301 353.34C233.601 358.74 217.701 362.04 201.201 362.84L209.601 417.94Z" fill="url(#paint14_linear_170_792)"/>
<path opacity="0.5" d="M209.501 349.24V417.94L201.201 362.84V294.04L209.501 349.24Z" fill="url(#paint15_linear_170_792)"/>
<g opacity="0.85" filter="url(#filter6_ii_170_792)">
<path d="M301.402 330.24V399.04C274.102 409.84 242.502 416.34 209.602 417.94V349.24C242.502 347.54 274.102 341.04 301.402 330.24Z" fill="url(#paint16_linear_170_792)"/>
</g>
<g opacity="0.85" filter="url(#filter7_i_170_792)">
<path d="M301.401 330.24C274.101 341.04 242.501 347.54 209.601 349.14L201.201 293.94C217.701 293.14 233.601 289.84 247.301 284.44L282.301 314.04L301.401 330.24Z" fill="url(#paint17_linear_170_792)"/>
</g>
<path opacity="0.85" d="M209.3 314.2V418L201 363V314.5V259L209.3 314.2Z" fill="url(#paint18_linear_170_792)"/>
<path opacity="0.5" d="M58.3995 227.44C29.8995 243.44 10.6995 264.14 3.39951 286.74C-3.90049 309.34 1.09951 332.64 17.5995 353.54C34.1995 374.44 61.4995 391.84 95.8995 403.34C130.3 414.84 169.999 420.04 209.599 418.04L201.199 362.84C181.299 363.84 161.399 361.24 144.099 355.44C126.899 349.64 113.1 340.94 104.8 330.44C96.4995 319.94 93.9995 308.24 97.6995 296.94C101.399 285.64 111 275.24 125.3 267.24L58.3995 227.44Z" fill="url(#paint19_linear_170_792)"/>
<g opacity="0.85" filter="url(#filter8_i_170_792)">
<path d="M209.5 314.04C170.3 316.04 131 311.04 96.9 299.74C96.5 299.64 96.2 299.54 95.8 299.34C64.6 288.84 39.2 273.54 22.4 255.24C20.7 253.34 19.1 251.44 17.5 249.54C5.9 234.94 0 219.14 0 203.24C0 196.44 1.1 189.54 3.3 182.84C9.1 164.84 22.6 148.04 42.2 133.84C47.2 130.24 52.6 126.84 58.3 123.54L125.2 163.24C110.9 171.24 101.2 181.64 97.6 193.04C93.9 204.34 96.4 216.04 104.7 226.54C113 237.04 126.7 245.74 144 251.54C161.2 257.34 181.2 259.94 201.1 258.94L209.5 314.04Z" fill="#FF0000"/>
<path d="M209.5 314.04C170.3 316.04 131 311.04 96.9 299.74C96.5 299.64 96.2 299.54 95.8 299.34C64.6 288.84 39.2 273.54 22.4 255.24C20.7 253.34 19.1 251.44 17.5 249.54C5.9 234.94 0 219.14 0 203.24C0 196.44 1.1 189.54 3.3 182.84C9.1 164.84 22.6 148.04 42.2 133.84C47.2 130.24 52.6 126.84 58.3 123.54L125.2 163.24C110.9 171.24 101.2 181.64 97.6 193.04C93.9 204.34 96.4 216.04 104.7 226.54C113 237.04 126.7 245.74 144 251.54C161.2 257.34 181.2 259.94 201.1 258.94L209.5 314.04Z" fill="url(#paint20_linear_170_792)"/>
</g>
<g opacity="0.85" filter="url(#filter9_ii_170_792)">
<path d="M209.5 314.04V417.94C169.9 419.94 130.2 414.84 95.8 403.24C61.4 391.74 34.1 374.34 17.5 353.44C5.9 338.84 0 323.04 0 307.14V203.14C0 219.04 5.9 234.84 17.5 249.44C19 251.34 20.6 253.24 22.4 255.14C39.2 273.54 64.6 288.84 95.8 299.24C96.2 299.34 96.5 299.44 96.9 299.64C131 311.04 170.3 316.04 209.5 314.04Z" fill="url(#paint21_linear_170_792)"/>
<path d="M209.5 314.04V417.94C169.9 419.94 130.2 414.84 95.8 403.24C61.4 391.74 34.1 374.34 17.5 353.44C5.9 338.84 0 323.04 0 307.14V203.14C0 219.04 5.9 234.84 17.5 249.44C19 251.34 20.6 253.24 22.4 255.14C39.2 273.54 64.6 288.84 95.8 299.24C96.2 299.34 96.5 299.44 96.9 299.64C131 311.04 170.3 316.04 209.5 314.04Z" fill="url(#paint22_linear_170_792)"/>
</g>
<path opacity="0.85" d="M125.3 163.24V243.24C116.8 238.44 109.8 232.74 104.8 226.44C96.5 215.94 94 204.24 97.7 192.94C101.4 181.64 111 171.24 125.3 163.24Z" fill="url(#paint23_linear_170_792)"/>
<path opacity="0.3" d="M260 108L260 55" stroke="white" stroke-linecap="round" stroke-dasharray="7 7"/>
<path d="M259.825 39.18C258.685 39.18 257.72 38.95 256.93 38.49V37.38C257.75 37.89 258.705 38.145 259.795 38.145C260.685 38.145 261.42 37.915 262 37.455C262.58 36.995 262.87 36.405 262.87 35.685C262.87 34.975 262.595 34.4 262.045 33.96C261.505 33.51 260.785 33.285 259.885 33.285C259.025 33.285 258.185 33.43 257.365 33.72L258.055 28.5H263.245V29.505H258.895L258.475 32.535C258.955 32.405 259.51 32.34 260.14 32.34C261.24 32.34 262.155 32.655 262.885 33.285C263.615 33.895 263.98 34.695 263.98 35.685C263.98 36.725 263.585 37.565 262.795 38.205C261.995 38.855 261.005 39.18 259.825 39.18ZM268.91 39H267.815V29.7L265.46 31.05V29.985L267.935 28.5H268.91V39ZM271.641 41.28H270.771L271.971 37.455H273.231L271.641 41.28ZM281.906 39H274.751V38.175L278.291 34.8C279.071 34.06 279.616 33.465 279.926 33.015C280.246 32.545 280.406 32.02 280.406 31.44C280.406 30.82 280.186 30.32 279.746 29.94C279.306 29.55 278.731 29.355 278.021 29.355C276.911 29.355 275.901 29.825 274.991 30.765V29.52C275.881 28.72 276.926 28.32 278.126 28.32C279.096 28.32 279.901 28.595 280.541 29.145C281.191 29.705 281.516 30.425 281.516 31.305C281.516 32.005 281.341 32.645 280.991 33.225C280.641 33.795 280.041 34.48 279.191 35.28L276.371 37.995H281.906V39ZM286.319 39H285.374L291.524 28.5H292.469L286.319 39ZM285.944 28.32C286.674 28.32 287.279 28.565 287.759 29.055C288.239 29.535 288.479 30.13 288.479 30.84C288.479 31.54 288.239 32.14 287.759 32.64C287.279 33.13 286.674 33.375 285.944 33.375C285.224 33.375 284.624 33.13 284.144 32.64C283.674 32.14 283.439 31.54 283.439 30.84C283.439 30.14 283.674 29.545 284.144 29.055C284.624 28.565 285.224 28.32 285.944 28.32ZM287.579 30.84C287.579 30.36 287.424 29.96 287.114 29.64C286.804 29.31 286.414 29.145 285.944 29.145C285.474 29.145 285.084 29.31 284.774 29.64C284.474 29.96 284.324 30.36 284.324 30.84C284.324 31.33 284.474 31.74 284.774 32.07C285.074 32.39 285.464 32.55 285.944 32.55C286.424 32.55 286.814 32.39 287.114 32.07C287.424 31.74 287.579 31.33 287.579 30.84ZM291.869 34.125C292.609 34.125 293.209 34.37 293.669 34.86C294.149 35.36 294.389 35.96 294.389 36.66C294.389 37.36 294.149 37.96 293.669 38.46C293.209 38.94 292.609 39.18 291.869 39.18C291.149 39.18 290.549 38.94 290.069 38.46C289.599 37.96 289.364 37.36 289.364 36.66C289.364 35.96 289.599 35.36 290.069 34.86C290.549 34.37 291.149 34.125 291.869 34.125ZM290.699 37.875C290.999 38.195 291.389 38.355 291.869 38.355C292.349 38.355 292.739 38.195 293.039 37.875C293.339 37.565 293.489 37.16 293.489 36.66C293.489 36.16 293.334 35.755 293.024 35.445C292.724 35.115 292.339 34.95 291.869 34.95C291.409 34.95 291.019 35.115 290.699 35.445C290.399 35.755 290.249 36.16 290.249 36.66C290.249 37.16 290.399 37.565 290.699 37.875Z" fill="white"/>
<path d="M262.48 14.21C260.85 14.21 259.495 13.7 258.415 12.68C257.335 11.64 256.795 10.33 256.795 8.75C256.795 7.15 257.33 5.84 258.4 4.82C259.48 3.8 260.84 3.29 262.48 3.29C263.5 3.29 264.425 3.51 265.255 3.95V6.125C264.445 5.585 263.525 5.315 262.495 5.315C261.505 5.315 260.67 5.64 259.99 6.29C259.33 6.93 259 7.75 259 8.75C259 9.75 259.34 10.575 260.02 11.225C260.69 11.865 261.545 12.185 262.585 12.185C263.735 12.185 264.695 11.88 265.465 11.27V13.445C264.615 13.955 263.62 14.21 262.48 14.21ZM268.776 10.25C268.776 10.85 268.971 11.35 269.361 11.75C269.751 12.15 270.246 12.35 270.846 12.35C271.446 12.35 271.941 12.15 272.331 11.75C272.721 11.34 272.916 10.84 272.916 10.25C272.916 9.65 272.721 9.155 272.331 8.765C271.941 8.365 271.446 8.165 270.846 8.165C270.246 8.165 269.751 8.365 269.361 8.765C268.971 9.155 268.776 9.65 268.776 10.25ZM266.691 10.25C266.691 9.14 267.081 8.21 267.861 7.46C268.631 6.7 269.626 6.32 270.846 6.32C272.066 6.32 273.061 6.7 273.831 7.46C274.611 8.22 275.001 9.15 275.001 10.25C275.001 11.37 274.611 12.31 273.831 13.07C273.051 13.82 272.056 14.195 270.846 14.195C269.636 14.195 268.641 13.82 267.861 13.07C267.081 12.31 266.691 11.37 266.691 10.25ZM278.676 14H276.561V6.515H278.676V7.43C279.236 6.69 279.996 6.32 280.956 6.32C281.496 6.32 281.976 6.44 282.396 6.68C282.826 6.92 283.121 7.225 283.281 7.595C283.531 7.215 283.891 6.91 284.361 6.68C284.831 6.44 285.331 6.32 285.861 6.32C286.681 6.32 287.331 6.58 287.811 7.1C288.291 7.62 288.531 8.36 288.531 9.32V14H286.416V9.8C286.416 8.77 286.001 8.255 285.171 8.255C284.851 8.255 284.546 8.35 284.256 8.54C283.966 8.73 283.751 8.975 283.611 9.275V14H281.496V9.8C281.496 8.77 281.081 8.255 280.251 8.255C279.951 8.255 279.651 8.35 279.351 8.54C279.051 8.73 278.826 8.965 278.676 9.245V14ZM292.563 14H290.448V6.515H292.563V7.43C293.123 6.69 293.883 6.32 294.843 6.32C295.383 6.32 295.863 6.44 296.283 6.68C296.713 6.92 297.008 7.225 297.168 7.595C297.418 7.215 297.778 6.91 298.248 6.68C298.718 6.44 299.218 6.32 299.748 6.32C300.568 6.32 301.218 6.58 301.698 7.1C302.178 7.62 302.418 8.36 302.418 9.32V14H300.303V9.8C300.303 8.77 299.888 8.255 299.058 8.255C298.738 8.255 298.433 8.35 298.143 8.54C297.853 8.73 297.638 8.975 297.498 9.275V14H295.383V9.8C295.383 8.77 294.968 8.255 294.138 8.255C293.838 8.255 293.538 8.35 293.238 8.54C292.938 8.73 292.713 8.965 292.563 9.245V14ZM309.435 11.285V6.515H311.55V14H309.435V13.1C308.765 13.83 307.93 14.195 306.93 14.195C306.07 14.195 305.4 13.925 304.92 13.385C304.44 12.835 304.2 12.075 304.2 11.105V6.515H306.315V10.67C306.315 11.21 306.445 11.61 306.705 11.87C306.975 12.13 307.32 12.26 307.74 12.26C308.06 12.26 308.375 12.17 308.685 11.99C309.005 11.8 309.255 11.565 309.435 11.285ZM315.737 9.23V14H313.622V6.515H315.737V7.415C316.407 6.685 317.242 6.32 318.242 6.32C319.102 6.32 319.772 6.595 320.252 7.145C320.732 7.685 320.972 8.44 320.972 9.41V14H318.857V9.845C318.857 9.305 318.722 8.905 318.452 8.645C318.192 8.385 317.852 8.255 317.432 8.255C317.112 8.255 316.792 8.35 316.472 8.54C316.162 8.72 315.917 8.95 315.737 9.23ZM325.114 14H322.999V6.515H325.114V14ZM322.789 4.535C322.789 4.175 322.909 3.875 323.149 3.635C323.399 3.385 323.699 3.26 324.049 3.26C324.399 3.26 324.694 3.385 324.934 3.635C325.184 3.875 325.309 4.175 325.309 4.535C325.309 4.885 325.184 5.185 324.934 5.435C324.694 5.675 324.399 5.795 324.049 5.795C323.699 5.795 323.399 5.675 323.149 5.435C322.909 5.185 322.789 4.885 322.789 4.535ZM327.994 11.675V8.285H326.524V6.515H327.994V4.46H330.109V6.515H332.239V8.285H330.109V11.255C330.109 11.625 330.189 11.895 330.349 12.065C330.509 12.225 330.769 12.305 331.129 12.305C331.499 12.305 331.864 12.215 332.224 12.035V13.79C331.784 14.06 331.189 14.195 330.439 14.195C328.809 14.195 327.994 13.355 327.994 11.675ZM334.885 17.09C334.265 17.09 333.765 16.99 333.385 16.79V14.945C333.735 15.145 334.115 15.245 334.525 15.245C334.905 15.245 335.22 15.125 335.47 14.885C335.73 14.655 335.97 14.275 336.19 13.745L332.965 6.515H335.245L337.225 11.435L339.1 6.515H341.335L337.87 14.78C337.21 16.32 336.215 17.09 334.885 17.09Z" fill="white"/>
<path d="M304.96 286H303.865V276.7L301.51 278.05V276.985L303.985 275.5H304.96V286ZM307.691 288.28H306.821L308.021 284.455H309.281L307.691 288.28ZM316.711 280.465C317.411 280.645 317.961 280.97 318.361 281.44C318.761 281.91 318.961 282.475 318.961 283.135C318.961 284.065 318.581 284.805 317.821 285.355C317.061 285.905 316.111 286.18 314.971 286.18C313.831 286.18 312.881 285.905 312.121 285.355C311.361 284.805 310.981 284.065 310.981 283.135C310.981 282.475 311.181 281.91 311.581 281.44C311.991 280.97 312.546 280.645 313.246 280.465C312.706 280.245 312.281 279.93 311.971 279.52C311.661 279.1 311.506 278.615 311.506 278.065C311.506 277.255 311.836 276.595 312.496 276.085C313.156 275.575 313.981 275.32 314.971 275.32C315.971 275.32 316.801 275.575 317.461 276.085C318.121 276.595 318.451 277.255 318.451 278.065C318.451 278.615 318.296 279.1 317.986 279.52C317.676 279.93 317.251 280.245 316.711 280.465ZM312.556 278.155C312.556 278.715 312.786 279.165 313.246 279.505C313.706 279.845 314.281 280.015 314.971 280.015C315.671 280.015 316.251 279.84 316.711 279.49C317.171 279.14 317.401 278.695 317.401 278.155C317.401 277.595 317.166 277.14 316.696 276.79C316.226 276.44 315.651 276.265 314.971 276.265C314.291 276.265 313.716 276.44 313.246 276.79C312.786 277.13 312.556 277.585 312.556 278.155ZM312.916 284.62C313.476 285.03 314.161 285.235 314.971 285.235C315.781 285.235 316.466 285.03 317.026 284.62C317.586 284.2 317.866 283.685 317.866 283.075C317.866 282.445 317.591 281.935 317.041 281.545C316.481 281.155 315.791 280.96 314.971 280.96C314.151 280.96 313.466 281.155 312.916 281.545C312.366 281.935 312.091 282.445 312.091 283.075C312.091 283.685 312.366 284.2 312.916 284.62ZM323.409 286H322.464L328.614 275.5H329.559L323.409 286ZM323.034 275.32C323.764 275.32 324.369 275.565 324.849 276.055C325.329 276.535 325.569 277.13 325.569 277.84C325.569 278.54 325.329 279.14 324.849 279.64C324.369 280.13 323.764 280.375 323.034 280.375C322.314 280.375 321.714 280.13 321.234 279.64C320.764 279.14 320.529 278.54 320.529 277.84C320.529 277.14 320.764 276.545 321.234 276.055C321.714 275.565 322.314 275.32 323.034 275.32ZM324.669 277.84C324.669 277.36 324.514 276.96 324.204 276.64C323.894 276.31 323.504 276.145 323.034 276.145C322.564 276.145 322.174 276.31 321.864 276.64C321.564 276.96 321.414 277.36 321.414 277.84C321.414 278.33 321.564 278.74 321.864 279.07C322.164 279.39 322.554 279.55 323.034 279.55C323.514 279.55 323.904 279.39 324.204 279.07C324.514 278.74 324.669 278.33 324.669 277.84ZM328.959 281.125C329.699 281.125 330.299 281.37 330.759 281.86C331.239 282.36 331.479 282.96 331.479 283.66C331.479 284.36 331.239 284.96 330.759 285.46C330.299 285.94 329.699 286.18 328.959 286.18C328.239 286.18 327.639 285.94 327.159 285.46C326.689 284.96 326.454 284.36 326.454 283.66C326.454 282.96 326.689 282.36 327.159 281.86C327.639 281.37 328.239 281.125 328.959 281.125ZM327.789 284.875C328.089 285.195 328.479 285.355 328.959 285.355C329.439 285.355 329.829 285.195 330.129 284.875C330.429 284.565 330.579 284.16 330.579 283.66C330.579 283.16 330.424 282.755 330.114 282.445C329.814 282.115 329.429 281.95 328.959 281.95C328.499 281.95 328.109 282.115 327.789 282.445C327.489 282.755 327.339 283.16 327.339 283.66C327.339 284.16 327.489 284.565 327.789 284.875Z" fill="white"/>
<path d="M303.505 261H301.24L305.74 250.44H307.81L312.31 261H310.015L308.98 258.57H304.54L303.505 261ZM306.76 253.14L305.215 256.785H308.29L306.76 253.14ZM316.461 261.195C315.451 261.195 314.606 260.82 313.926 260.07C313.266 259.31 312.936 258.37 312.936 257.25C312.936 256.14 313.266 255.21 313.926 254.46C314.596 253.7 315.441 253.32 316.461 253.32C317.511 253.32 318.331 253.69 318.921 254.43V250.5H321.036V261H318.921V260.085C318.361 260.825 317.541 261.195 316.461 261.195ZM317.061 259.35C317.461 259.35 317.826 259.245 318.156 259.035C318.486 258.825 318.741 258.555 318.921 258.225V256.275C318.741 255.945 318.486 255.68 318.156 255.48C317.826 255.27 317.461 255.165 317.061 255.165C316.461 255.165 315.976 255.365 315.606 255.765C315.226 256.175 315.036 256.67 315.036 257.25C315.036 257.84 315.226 258.34 315.606 258.75C315.976 259.15 316.461 259.35 317.061 259.35ZM327.434 261.06H325.514L322.259 253.515H324.539L326.519 258.375L328.484 253.515H330.689L327.434 261.06ZM334.152 261H332.037V253.515H334.152V261ZM331.827 251.535C331.827 251.175 331.947 250.875 332.187 250.635C332.437 250.385 332.737 250.26 333.087 250.26C333.437 250.26 333.732 250.385 333.972 250.635C334.222 250.875 334.347 251.175 334.347 251.535C334.347 251.885 334.222 252.185 333.972 252.435C333.732 252.675 333.437 252.795 333.087 252.795C332.737 252.795 332.437 252.675 332.187 252.435C331.947 252.185 331.827 251.885 331.827 251.535ZM339.087 261.195C337.757 261.195 336.707 260.96 335.937 260.49V258.615C336.297 258.855 336.752 259.06 337.302 259.23C337.862 259.39 338.427 259.47 338.997 259.47C339.857 259.47 340.287 259.26 340.287 258.84C340.287 258.64 340.162 258.485 339.912 258.375C339.782 258.315 339.652 258.27 339.522 258.24L338.967 258.105C338.887 258.085 338.777 258.06 338.637 258.03C338.507 257.99 338.417 257.96 338.367 257.94C337.477 257.7 336.847 257.415 336.477 257.085C336.117 256.745 335.937 256.255 335.937 255.615C335.937 254.905 336.227 254.345 336.807 253.935C337.397 253.525 338.207 253.32 339.237 253.32C340.377 253.32 341.312 253.55 342.042 254.01V255.81C341.152 255.29 340.247 255.03 339.327 255.03C338.527 255.03 338.127 255.23 338.127 255.63C338.127 255.71 338.147 255.785 338.187 255.855C338.237 255.915 338.282 255.96 338.322 255.99C338.372 256.02 338.447 256.065 338.547 256.125C338.607 256.145 338.717 256.18 338.877 256.23C339.037 256.27 339.142 256.3 339.192 256.32L339.987 256.485C340.817 256.675 341.432 256.96 341.832 257.34C342.232 257.71 342.432 258.215 342.432 258.855C342.432 259.555 342.127 260.12 341.517 260.55C340.907 260.98 340.097 261.195 339.087 261.195ZM345.593 257.25C345.593 257.85 345.788 258.35 346.178 258.75C346.568 259.15 347.063 259.35 347.663 259.35C348.263 259.35 348.758 259.15 349.148 258.75C349.538 258.34 349.733 257.84 349.733 257.25C349.733 256.65 349.538 256.155 349.148 255.765C348.758 255.365 348.263 255.165 347.663 255.165C347.063 255.165 346.568 255.365 346.178 255.765C345.788 256.155 345.593 256.65 345.593 257.25ZM343.508 257.25C343.508 256.14 343.898 255.21 344.678 254.46C345.448 253.7 346.443 253.32 347.663 253.32C348.883 253.32 349.878 253.7 350.648 254.46C351.428 255.22 351.818 256.15 351.818 257.25C351.818 258.37 351.428 259.31 350.648 260.07C349.868 260.82 348.873 261.195 347.663 261.195C346.453 261.195 345.458 260.82 344.678 260.07C343.898 259.31 343.508 258.37 343.508 257.25ZM355.493 261H353.378V253.515H355.493V254.775C355.723 254.375 356.073 254.035 356.543 253.755C357.033 253.465 357.553 253.32 358.103 253.32C358.223 253.32 358.303 253.325 358.343 253.335V255.405C358.143 255.355 357.923 255.33 357.683 255.33C357.193 255.33 356.743 255.46 356.333 255.72C355.933 255.97 355.653 256.275 355.493 256.635V261ZM362.481 261.195C361.151 261.195 360.101 260.96 359.331 260.49V258.615C359.691 258.855 360.146 259.06 360.696 259.23C361.256 259.39 361.821 259.47 362.391 259.47C363.251 259.47 363.681 259.26 363.681 258.84C363.681 258.64 363.556 258.485 363.306 258.375C363.176 258.315 363.046 258.27 362.916 258.24L362.361 258.105C362.281 258.085 362.171 258.06 362.031 258.03C361.901 257.99 361.811 257.96 361.761 257.94C360.871 257.7 360.241 257.415 359.871 257.085C359.511 256.745 359.331 256.255 359.331 255.615C359.331 254.905 359.621 254.345 360.201 253.935C360.791 253.525 361.601 253.32 362.631 253.32C363.771 253.32 364.706 253.55 365.436 254.01V255.81C364.546 255.29 363.641 255.03 362.721 255.03C361.921 255.03 361.521 255.23 361.521 255.63C361.521 255.71 361.541 255.785 361.581 255.855C361.631 255.915 361.676 255.96 361.716 255.99C361.766 256.02 361.841 256.065 361.941 256.125C362.001 256.145 362.111 256.18 362.271 256.23C362.431 256.27 362.536 256.3 362.586 256.32L363.381 256.485C364.211 256.675 364.826 256.96 365.226 257.34C365.626 257.71 365.826 258.215 365.826 258.855C365.826 259.555 365.521 260.12 364.911 260.55C364.301 260.98 363.491 261.195 362.481 261.195Z" fill="white"/>
<path d="M241.57 248.465C242.27 248.645 242.82 248.97 243.22 249.44C243.62 249.91 243.82 250.475 243.82 251.135C243.82 252.065 243.44 252.805 242.68 253.355C241.92 253.905 240.97 254.18 239.83 254.18C238.69 254.18 237.74 253.905 236.98 253.355C236.22 252.805 235.84 252.065 235.84 251.135C235.84 250.475 236.04 249.91 236.44 249.44C236.85 248.97 237.405 248.645 238.105 248.465C237.565 248.245 237.14 247.93 236.83 247.52C236.52 247.1 236.365 246.615 236.365 246.065C236.365 245.255 236.695 244.595 237.355 244.085C238.015 243.575 238.84 243.32 239.83 243.32C240.83 243.32 241.66 243.575 242.32 244.085C242.98 244.595 243.31 245.255 243.31 246.065C243.31 246.615 243.155 247.1 242.845 247.52C242.535 247.93 242.11 248.245 241.57 248.465ZM237.415 246.155C237.415 246.715 237.645 247.165 238.105 247.505C238.565 247.845 239.14 248.015 239.83 248.015C240.53 248.015 241.11 247.84 241.57 247.49C242.03 247.14 242.26 246.695 242.26 246.155C242.26 245.595 242.025 245.14 241.555 244.79C241.085 244.44 240.51 244.265 239.83 244.265C239.15 244.265 238.575 244.44 238.105 244.79C237.645 245.13 237.415 245.585 237.415 246.155ZM237.775 252.62C238.335 253.03 239.02 253.235 239.83 253.235C240.64 253.235 241.325 253.03 241.885 252.62C242.445 252.2 242.725 251.685 242.725 251.075C242.725 250.445 242.45 249.935 241.9 249.545C241.34 249.155 240.65 248.96 239.83 248.96C239.01 248.96 238.325 249.155 237.775 249.545C237.225 249.935 236.95 250.445 236.95 251.075C236.95 251.685 237.225 252.2 237.775 252.62ZM245.573 256.28H244.703L245.903 252.455H247.163L245.573 256.28ZM249.027 248.75C249.027 247.21 249.422 245.925 250.212 244.895C251.012 243.845 252.052 243.32 253.332 243.32C254.602 243.32 255.637 243.84 256.437 244.88C257.227 245.91 257.622 247.2 257.622 248.75C257.622 250.3 257.227 251.59 256.437 252.62C255.637 253.66 254.602 254.18 253.332 254.18C252.052 254.18 251.012 253.66 250.212 252.62C249.422 251.59 249.027 250.3 249.027 248.75ZM256.527 248.75C256.527 247.5 256.227 246.455 255.627 245.615C255.027 244.775 254.262 244.355 253.332 244.355C252.402 244.355 251.637 244.775 251.037 245.615C250.437 246.455 250.137 247.5 250.137 248.75C250.137 250 250.432 251.05 251.022 251.9C251.622 252.73 252.392 253.145 253.332 253.145C254.272 253.145 255.037 252.73 255.627 251.9C256.227 251.06 256.527 250.01 256.527 248.75ZM262.243 254H261.298L267.448 243.5H268.393L262.243 254ZM261.868 243.32C262.598 243.32 263.203 243.565 263.683 244.055C264.163 244.535 264.403 245.13 264.403 245.84C264.403 246.54 264.163 247.14 263.683 247.64C263.203 248.13 262.598 248.375 261.868 248.375C261.148 248.375 260.548 248.13 260.068 247.64C259.598 247.14 259.363 246.54 259.363 245.84C259.363 245.14 259.598 244.545 260.068 244.055C260.548 243.565 261.148 243.32 261.868 243.32ZM263.503 245.84C263.503 245.36 263.348 244.96 263.038 244.64C262.728 244.31 262.338 244.145 261.868 244.145C261.398 244.145 261.008 244.31 260.698 244.64C260.398 244.96 260.248 245.36 260.248 245.84C260.248 246.33 260.398 246.74 260.698 247.07C260.998 247.39 261.388 247.55 261.868 247.55C262.348 247.55 262.738 247.39 263.038 247.07C263.348 246.74 263.503 246.33 263.503 245.84ZM267.793 249.125C268.533 249.125 269.133 249.37 269.593 249.86C270.073 250.36 270.313 250.96 270.313 251.66C270.313 252.36 270.073 252.96 269.593 253.46C269.133 253.94 268.533 254.18 267.793 254.18C267.073 254.18 266.473 253.94 265.993 253.46C265.523 252.96 265.288 252.36 265.288 251.66C265.288 250.96 265.523 250.36 265.993 249.86C266.473 249.37 267.073 249.125 267.793 249.125ZM266.623 252.875C266.923 253.195 267.313 253.355 267.793 253.355C268.273 253.355 268.663 253.195 268.963 252.875C269.263 252.565 269.413 252.16 269.413 251.66C269.413 251.16 269.258 250.755 268.948 250.445C268.648 250.115 268.263 249.95 267.793 249.95C267.333 249.95 266.943 250.115 266.623 250.445C266.323 250.755 266.173 251.16 266.173 251.66C266.173 252.16 266.323 252.565 266.623 252.875Z" fill="white"/>
<path d="M238.315 229H236.155V218.5H241.015C242.135 218.5 243.015 218.79 243.655 219.37C244.305 219.94 244.63 220.685 244.63 221.605C244.63 222.305 244.435 222.915 244.045 223.435C243.665 223.945 243.135 224.305 242.455 224.515L245.695 229H243.19L240.13 224.755H238.315V229ZM238.315 220.39V222.94H240.895C241.385 222.94 241.765 222.83 242.035 222.61C242.315 222.39 242.455 222.075 242.455 221.665C242.455 221.265 242.315 220.955 242.035 220.735C241.765 220.505 241.385 220.39 240.895 220.39H238.315ZM254.117 227.365C254.297 227.365 254.442 227.335 254.552 227.275V228.82C254.282 229.03 253.902 229.135 253.412 229.135C252.562 229.135 251.997 228.815 251.717 228.175C251.057 228.855 250.197 229.195 249.137 229.195C248.317 229.195 247.652 228.965 247.142 228.505C246.632 228.045 246.377 227.44 246.377 226.69C246.377 225.89 246.667 225.28 247.247 224.86C247.827 224.44 248.522 224.23 249.332 224.23C250.182 224.23 250.902 224.385 251.492 224.695V224.47C251.492 223.53 250.832 223.06 249.512 223.06C248.702 223.06 247.947 223.27 247.247 223.69V221.92C248.007 221.52 248.932 221.32 250.022 221.32C251.102 221.32 251.962 221.58 252.602 222.1C253.262 222.62 253.592 223.34 253.592 224.26V226.795C253.592 227.175 253.767 227.365 254.117 227.365ZM251.492 226.795V226.045C251.052 225.755 250.532 225.61 249.932 225.61C249.482 225.61 249.122 225.695 248.852 225.865C248.592 226.035 248.462 226.275 248.462 226.585C248.462 226.905 248.582 227.15 248.822 227.32C249.062 227.48 249.387 227.56 249.797 227.56C250.537 227.56 251.102 227.305 251.492 226.795ZM258.235 229H256.12V221.515H258.235V229ZM255.91 219.535C255.91 219.175 256.03 218.875 256.27 218.635C256.52 218.385 256.82 218.26 257.17 218.26C257.52 218.26 257.815 218.385 258.055 218.635C258.305 218.875 258.43 219.175 258.43 219.535C258.43 219.885 258.305 220.185 258.055 220.435C257.815 220.675 257.52 220.795 257.17 220.795C256.82 220.795 256.52 220.675 256.27 220.435C256.03 220.185 255.91 219.885 255.91 219.535ZM263.17 229.195C261.84 229.195 260.79 228.96 260.02 228.49V226.615C260.38 226.855 260.835 227.06 261.385 227.23C261.945 227.39 262.51 227.47 263.08 227.47C263.94 227.47 264.37 227.26 264.37 226.84C264.37 226.64 264.245 226.485 263.995 226.375C263.865 226.315 263.735 226.27 263.605 226.24L263.05 226.105C262.97 226.085 262.86 226.06 262.72 226.03C262.59 225.99 262.5 225.96 262.45 225.94C261.56 225.7 260.93 225.415 260.56 225.085C260.2 224.745 260.02 224.255 260.02 223.615C260.02 222.905 260.31 222.345 260.89 221.935C261.48 221.525 262.29 221.32 263.32 221.32C264.46 221.32 265.395 221.55 266.125 222.01V223.81C265.235 223.29 264.33 223.03 263.41 223.03C262.61 223.03 262.21 223.23 262.21 223.63C262.21 223.71 262.23 223.785 262.27 223.855C262.32 223.915 262.365 223.96 262.405 223.99C262.455 224.02 262.53 224.065 262.63 224.125C262.69 224.145 262.8 224.18 262.96 224.23C263.12 224.27 263.225 224.3 263.275 224.32L264.07 224.485C264.9 224.675 265.515 224.96 265.915 225.34C266.315 225.71 266.515 226.215 266.515 226.855C266.515 227.555 266.21 228.12 265.6 228.55C264.99 228.98 264.18 229.195 263.17 229.195ZM271.746 229.195C270.576 229.195 269.591 228.835 268.791 228.115C267.991 227.395 267.591 226.44 267.591 225.25C267.591 224.14 267.951 223.21 268.671 222.46C269.391 221.7 270.331 221.32 271.491 221.32C272.571 221.32 273.436 221.705 274.086 222.475C274.736 223.245 275.061 224.18 275.061 225.28V225.835H269.691C269.801 226.335 270.076 226.72 270.516 226.99C270.966 227.26 271.526 227.395 272.196 227.395C273.026 227.395 273.826 227.175 274.596 226.735V228.43C273.926 228.94 272.976 229.195 271.746 229.195ZM269.691 224.485H272.976C272.956 224.055 272.801 223.7 272.511 223.42C272.231 223.13 271.861 222.985 271.401 222.985C270.931 222.985 270.541 223.125 270.231 223.405C269.921 223.675 269.741 224.035 269.691 224.485ZM279.444 229.195C278.114 229.195 277.064 228.96 276.294 228.49V226.615C276.654 226.855 277.109 227.06 277.659 227.23C278.219 227.39 278.784 227.47 279.354 227.47C280.214 227.47 280.644 227.26 280.644 226.84C280.644 226.64 280.519 226.485 280.269 226.375C280.139 226.315 280.009 226.27 279.879 226.24L279.324 226.105C279.244 226.085 279.134 226.06 278.994 226.03C278.864 225.99 278.774 225.96 278.724 225.94C277.834 225.7 277.204 225.415 276.834 225.085C276.474 224.745 276.294 224.255 276.294 223.615C276.294 222.905 276.584 222.345 277.164 221.935C277.754 221.525 278.564 221.32 279.594 221.32C280.734 221.32 281.669 221.55 282.399 222.01V223.81C281.509 223.29 280.604 223.03 279.684 223.03C278.884 223.03 278.484 223.23 278.484 223.63C278.484 223.71 278.504 223.785 278.544 223.855C278.594 223.915 278.639 223.96 278.679 223.99C278.729 224.02 278.804 224.065 278.904 224.125C278.964 224.145 279.074 224.18 279.234 224.23C279.394 224.27 279.499 224.3 279.549 224.32L280.344 224.485C281.174 224.675 281.789 224.96 282.189 225.34C282.589 225.71 282.789 226.215 282.789 226.855C282.789 227.555 282.484 228.12 281.874 228.55C281.264 228.98 280.454 229.195 279.444 229.195Z" fill="white"/>
<path d="M86.675 203.18C85.445 203.18 84.425 202.925 83.615 202.415V201.26C84.465 201.85 85.465 202.145 86.615 202.145C87.405 202.145 88.095 201.925 88.685 201.485C89.275 201.035 89.57 200.43 89.57 199.67C89.57 198.95 89.31 198.375 88.79 197.945C88.28 197.505 87.59 197.285 86.72 197.285C86.3 197.285 85.91 197.335 85.55 197.435V196.67L88.79 193.505H84.05V192.5H90.29V193.325L87.155 196.4C88.075 196.42 88.89 196.73 89.6 197.33C90.32 197.93 90.68 198.71 90.68 199.67C90.68 200.71 90.295 201.555 89.525 202.205C88.755 202.855 87.805 203.18 86.675 203.18ZM96.0579 192.32C97.2879 192.32 98.2579 192.755 98.9679 193.625C99.6779 194.485 100.033 195.69 100.033 197.24C100.063 198.92 99.6579 200.335 98.8179 201.485C97.9779 202.625 96.8629 203.19 95.4729 203.18C94.6029 203.18 93.8629 202.965 93.2529 202.535V201.47C93.9129 201.92 94.6229 202.145 95.3829 202.145C96.1729 202.145 96.8429 201.92 97.3929 201.47C97.9429 201.02 98.3329 200.47 98.5629 199.82C98.8029 199.17 98.9329 198.45 98.9529 197.66C98.6729 198.14 98.2629 198.52 97.7229 198.8C97.1929 199.08 96.5779 199.22 95.8779 199.22C94.9379 199.22 94.1329 198.91 93.4629 198.29C92.8129 197.66 92.4879 196.855 92.4879 195.875C92.4879 194.855 92.8279 194.005 93.5079 193.325C94.1879 192.655 95.0379 192.32 96.0579 192.32ZM96.1179 193.355C95.4079 193.355 94.8029 193.595 94.3029 194.075C93.8229 194.545 93.5829 195.145 93.5829 195.875C93.5829 196.595 93.8279 197.17 94.3179 197.6C94.8079 198.03 95.4179 198.245 96.1479 198.245C96.7579 198.245 97.3279 198.05 97.8579 197.66C98.3679 197.28 98.7229 196.795 98.9229 196.205C98.8329 195.295 98.5429 194.595 98.0529 194.105C97.5729 193.605 96.9279 193.355 96.1179 193.355ZM101.175 205.28H100.305L101.505 201.455H102.765L101.175 205.28ZM104.63 197.75C104.63 196.21 105.025 194.925 105.815 193.895C106.615 192.845 107.655 192.32 108.935 192.32C110.205 192.32 111.24 192.84 112.04 193.88C112.83 194.91 113.225 196.2 113.225 197.75C113.225 199.3 112.83 200.59 112.04 201.62C111.24 202.66 110.205 203.18 108.935 203.18C107.655 203.18 106.615 202.66 105.815 201.62C105.025 200.59 104.63 199.3 104.63 197.75ZM112.13 197.75C112.13 196.5 111.83 195.455 111.23 194.615C110.63 193.775 109.865 193.355 108.935 193.355C108.005 193.355 107.24 193.775 106.64 194.615C106.04 195.455 105.74 196.5 105.74 197.75C105.74 199 106.035 200.05 106.625 200.9C107.225 201.73 107.995 202.145 108.935 202.145C109.875 202.145 110.64 201.73 111.23 200.9C111.83 200.06 112.13 199.01 112.13 197.75ZM117.845 203H116.9L123.05 192.5H123.995L117.845 203ZM117.47 192.32C118.2 192.32 118.805 192.565 119.285 193.055C119.765 193.535 120.005 194.13 120.005 194.84C120.005 195.54 119.765 196.14 119.285 196.64C118.805 197.13 118.2 197.375 117.47 197.375C116.75 197.375 116.15 197.13 115.67 196.64C115.2 196.14 114.965 195.54 114.965 194.84C114.965 194.14 115.2 193.545 115.67 193.055C116.15 192.565 116.75 192.32 117.47 192.32ZM119.105 194.84C119.105 194.36 118.95 193.96 118.64 193.64C118.33 193.31 117.94 193.145 117.47 193.145C117 193.145 116.61 193.31 116.3 193.64C116 193.96 115.85 194.36 115.85 194.84C115.85 195.33 116 195.74 116.3 196.07C116.6 196.39 116.99 196.55 117.47 196.55C117.95 196.55 118.34 196.39 118.64 196.07C118.95 195.74 119.105 195.33 119.105 194.84ZM123.395 198.125C124.135 198.125 124.735 198.37 125.195 198.86C125.675 199.36 125.915 199.96 125.915 200.66C125.915 201.36 125.675 201.96 125.195 202.46C124.735 202.94 124.135 203.18 123.395 203.18C122.675 203.18 122.075 202.94 121.595 202.46C121.125 201.96 120.89 201.36 120.89 200.66C120.89 199.96 121.125 199.36 121.595 198.86C122.075 198.37 122.675 198.125 123.395 198.125ZM122.225 201.875C122.525 202.195 122.915 202.355 123.395 202.355C123.875 202.355 124.265 202.195 124.565 201.875C124.865 201.565 125.015 201.16 125.015 200.66C125.015 200.16 124.86 199.755 124.55 199.445C124.25 199.115 123.865 198.95 123.395 198.95C122.935 198.95 122.545 199.115 122.225 199.445C121.925 199.755 121.775 200.16 121.775 200.66C121.775 201.16 121.925 201.565 122.225 201.875Z" fill="white"/>
<path d="M86.315 178H84.155V167.5H86.3L89.345 171.85L92.39 167.5H94.52V178H92.39V170.815L89.975 174.19H88.775L86.315 170.815V178ZM101.821 175.285V170.515H103.936V178H101.821V177.1C101.151 177.83 100.316 178.195 99.3155 178.195C98.4555 178.195 97.7855 177.925 97.3055 177.385C96.8255 176.835 96.5855 176.075 96.5855 175.105V170.515H98.7005V174.67C98.7005 175.21 98.8305 175.61 99.0905 175.87C99.3605 176.13 99.7055 176.26 100.126 176.26C100.446 176.26 100.761 176.17 101.071 175.99C101.391 175.8 101.641 175.565 101.821 175.285ZM111.108 175.285V170.515H113.223V178H111.108V177.1C110.438 177.83 109.603 178.195 108.603 178.195C107.743 178.195 107.073 177.925 106.593 177.385C106.113 176.835 105.873 176.075 105.873 175.105V170.515H107.988V174.67C107.988 175.21 108.118 175.61 108.378 175.87C108.648 176.13 108.993 176.26 109.413 176.26C109.733 176.26 110.048 176.17 110.358 175.99C110.678 175.8 110.928 175.565 111.108 175.285ZM117.41 173.23V178H115.295V170.515H117.41V171.415C118.08 170.685 118.915 170.32 119.915 170.32C120.775 170.32 121.445 170.595 121.925 171.145C122.405 171.685 122.645 172.44 122.645 173.41V178H120.53V173.845C120.53 173.305 120.395 172.905 120.125 172.645C119.865 172.385 119.525 172.255 119.105 172.255C118.785 172.255 118.465 172.35 118.145 172.54C117.835 172.72 117.59 172.95 117.41 173.23ZM126.787 178H124.672V170.515H126.787V178ZM124.462 168.535C124.462 168.175 124.582 167.875 124.822 167.635C125.072 167.385 125.372 167.26 125.722 167.26C126.072 167.26 126.367 167.385 126.607 167.635C126.857 167.875 126.982 168.175 126.982 168.535C126.982 168.885 126.857 169.185 126.607 169.435C126.367 169.675 126.072 169.795 125.722 169.795C125.372 169.795 125.072 169.675 124.822 169.435C124.582 169.185 124.462 168.885 124.462 168.535ZM137.047 178H134.932V172.285H131.647V178H129.532V172.285H128.197V170.515H129.532V169.81C129.532 169.05 129.752 168.445 130.192 167.995C130.632 167.545 131.257 167.32 132.067 167.32C132.797 167.32 133.432 167.425 133.972 167.635V169.345C133.522 169.175 133.092 169.09 132.682 169.09C131.992 169.09 131.647 169.425 131.647 170.095V170.515H137.047V178ZM134.722 168.535C134.722 168.175 134.842 167.875 135.082 167.635C135.332 167.385 135.632 167.26 135.982 167.26C136.332 167.26 136.627 167.385 136.867 167.635C137.117 167.875 137.242 168.175 137.242 168.535C137.242 168.885 137.117 169.185 136.867 169.435C136.627 169.675 136.332 169.795 135.982 169.795C135.632 169.795 135.332 169.675 135.082 169.435C134.842 169.185 134.722 168.885 134.722 168.535Z" fill="white"/>
<path opacity="0.3" d="M87 271L87 217" stroke="white" stroke-linecap="round" stroke-dasharray="7 7"/>
<path opacity="0.3" d="M239 324L239 271" stroke="white" stroke-linecap="round" stroke-dasharray="7 7"/>
<path opacity="0.3" d="M305 356L305 303" stroke="white" stroke-linecap="round" stroke-dasharray="7 7"/>
<defs>
<filter id="filter0_i_170_792" x="58.3008" y="56" width="326.984" height="195.94" filterUnits="userSpaceOnUse" color-interpolation-filters="sRGB">
<feFlood flood-opacity="0" result="BackgroundImageFix"/>
<feBlend mode="normal" in="SourceGraphic" in2="BackgroundImageFix" result="shape"/>
<feColorMatrix in="SourceAlpha" type="matrix" values="0 0 0 0 0 0 0 0 0 0 0 0 0 0 0 0 0 0 127 0" result="hardAlpha"/>
<feOffset dy="-1"/>
<feGaussianBlur stdDeviation="2.5"/>
<feComposite in2="hardAlpha" operator="arithmetic" k2="-1" k3="1"/>
<feColorMatrix type="matrix" values="0 0 0 0 1 0 0 0 0 1 0 0 0 0 1 0 0 0 0.1 0"/>
<feBlend mode="normal" in2="shape" result="effect1_innerShadow_170_792"/>
</filter>
<filter id="filter1_ii_170_792" x="319.301" y="168.54" width="65.9004" height="224.4" filterUnits="userSpaceOnUse" color-interpolation-filters="sRGB">
<feFlood flood-opacity="0" result="BackgroundImageFix"/>
<feBlend mode="normal" in="SourceGraphic" in2="BackgroundImageFix" result="shape"/>
<feColorMatrix in="SourceAlpha" type="matrix" values="0 0 0 0 0 0 0 0 0 0 0 0 0 0 0 0 0 0 127 0" result="hardAlpha"/>
<feOffset dy="2"/>
<feGaussianBlur stdDeviation="1"/>
<feComposite in2="hardAlpha" operator="arithmetic" k2="-1" k3="1"/>
<feColorMatrix type="matrix" values="0 0 0 0 1 0 0 0 0 1 0 0 0 0 1 0 0 0 0.31 0"/>
<feBlend mode="normal" in2="shape" result="effect1_innerShadow_170_792"/>
<feColorMatrix in="SourceAlpha" type="matrix" values="0 0 0 0 0 0 0 0 0 0 0 0 0 0 0 0 0 0 127 0" result="hardAlpha"/>
<feOffset dy="-2"/>
<feGaussianBlur stdDeviation="2"/>
<feComposite in2="hardAlpha" operator="arithmetic" k2="-1" k3="1"/>
<feColorMatrix type="matrix" values="0 0 0 0 0 0 0 0 0 0 0 0 0 0 0 0 0 0 0.17 0"/>
<feBlend mode="normal" in2="effect1_innerShadow_170_792" result="effect2_innerShadow_170_792"/>
</filter>
<filter id="filter2_i_170_792" x="256.301" y="210.24" width="63.0996" height="183.7" filterUnits="userSpaceOnUse" color-interpolation-filters="sRGB">
<feFlood flood-opacity="0" result="BackgroundImageFix"/>
<feBlend mode="normal" in="SourceGraphic" in2="BackgroundImageFix" result="shape"/>
<feColorMatrix in="SourceAlpha" type="matrix" values="0 0 0 0 0 0 0 0 0 0 0 0 0 0 0 0 0 0 127 0" result="hardAlpha"/>
<feOffset dy="3"/>
<feGaussianBlur stdDeviation="5"/>
<feComposite in2="hardAlpha" operator="arithmetic" k2="-1" k3="1"/>
<feColorMatrix type="matrix" values="0 0 0 0 1 0 0 0 0 1 0 0 0 0 1 0 0 0 0.41 0"/>
<feBlend mode="overlay" in2="shape" result="effect1_innerShadow_170_792"/>
</filter>
<filter id="filter3_i_170_792" x="58.4004" y="88.4401" width="66.9004" height="181.7" filterUnits="userSpaceOnUse" color-interpolation-filters="sRGB">
<feFlood flood-opacity="0" result="BackgroundImageFix"/>
<feBlend mode="normal" in="SourceGraphic" in2="BackgroundImageFix" result="shape"/>
<feColorMatrix in="SourceAlpha" type="matrix" values="0 0 0 0 0 0 0 0 0 0 0 0 0 0 0 0 0 0 127 0" result="hardAlpha"/>
<feOffset dy="3"/>
<feGaussianBlur stdDeviation="5"/>
<feComposite in2="hardAlpha" operator="arithmetic" k2="-1" k3="1"/>
<feColorMatrix type="matrix" values="0 0 0 0 1 0 0 0 0 1 0 0 0 0 1 0 0 0 0.29 0"/>
<feBlend mode="normal" in2="shape" result="effect1_innerShadow_170_792"/>
</filter>
<filter id="filter4_i_170_792" x="247.201" y="313.44" width="72.1992" height="50.8" filterUnits="userSpaceOnUse" color-interpolation-filters="sRGB">
<feFlood flood-opacity="0" result="BackgroundImageFix"/>
<feBlend mode="normal" in="SourceGraphic" in2="BackgroundImageFix" result="shape"/>
<feColorMatrix in="SourceAlpha" type="matrix" values="0 0 0 0 0 0 0 0 0 0 0 0 0 0 0 0 0 0 127 0" result="hardAlpha"/>
<feOffset dy="-1"/>
<feGaussianBlur stdDeviation="2.5"/>
<feComposite in2="hardAlpha" operator="arithmetic" k2="-1" k3="1"/>
<feColorMatrix type="matrix" values="0 0 0 0 1 0 0 0 0 1 0 0 0 0 1 0 0 0 0.1 0"/>
<feBlend mode="normal" in2="shape" result="effect1_innerShadow_170_792"/>
</filter>
<filter id="filter5_ii_170_792" x="301.301" y="354.24" width="18.0996" height="46.8" filterUnits="userSpaceOnUse" color-interpolation-filters="sRGB">
<feFlood flood-opacity="0" result="BackgroundImageFix"/>
<feBlend mode="normal" in="SourceGraphic" in2="BackgroundImageFix" result="shape"/>
<feColorMatrix in="SourceAlpha" type="matrix" values="0 0 0 0 0 0 0 0 0 0 0 0 0 0 0 0 0 0 127 0" result="hardAlpha"/>
<feOffset dy="2"/>
<feGaussianBlur stdDeviation="1"/>
<feComposite in2="hardAlpha" operator="arithmetic" k2="-1" k3="1"/>
<feColorMatrix type="matrix" values="0 0 0 0 1 0 0 0 0 1 0 0 0 0 1 0 0 0 0.31 0"/>
<feBlend mode="normal" in2="shape" result="effect1_innerShadow_170_792"/>
<feColorMatrix in="SourceAlpha" type="matrix" values="0 0 0 0 0 0 0 0 0 0 0 0 0 0 0 0 0 0 127 0" result="hardAlpha"/>
<feOffset dy="-2"/>
<feGaussianBlur stdDeviation="2"/>
<feComposite in2="hardAlpha" operator="arithmetic" k2="-1" k3="1"/>
<feColorMatrix type="matrix" values="0 0 0 0 0 0 0 0 0 0 0 0 0 0 0 0 0 0 0.17 0"/>
<feBlend mode="normal" in2="effect1_innerShadow_170_792" result="effect2_innerShadow_170_792"/>
</filter>
<filter id="filter6_ii_170_792" x="209.602" y="328.24" width="91.8008" height="91.7" filterUnits="userSpaceOnUse" color-interpolation-filters="sRGB">
<feFlood flood-opacity="0" result="BackgroundImageFix"/>
<feBlend mode="normal" in="SourceGraphic" in2="BackgroundImageFix" result="shape"/>
<feColorMatrix in="SourceAlpha" type="matrix" values="0 0 0 0 0 0 0 0 0 0 0 0 0 0 0 0 0 0 127 0" result="hardAlpha"/>
<feOffset dy="2"/>
<feGaussianBlur stdDeviation="1"/>
<feComposite in2="hardAlpha" operator="arithmetic" k2="-1" k3="1"/>
<feColorMatrix type="matrix" values="0 0 0 0 1 0 0 0 0 1 0 0 0 0 1 0 0 0 0.31 0"/>
<feBlend mode="normal" in2="shape" result="effect1_innerShadow_170_792"/>
<feColorMatrix in="SourceAlpha" type="matrix" values="0 0 0 0 0 0 0 0 0 0 0 0 0 0 0 0 0 0 127 0" result="hardAlpha"/>
<feOffset dy="-2"/>
<feGaussianBlur stdDeviation="2"/>
<feComposite in2="hardAlpha" operator="arithmetic" k2="-1" k3="1"/>
<feColorMatrix type="matrix" values="0 0 0 0 0 0 0 0 0 0 0 0 0 0 0 0 0 0 0.17 0"/>
<feBlend mode="normal" in2="effect1_innerShadow_170_792" result="effect2_innerShadow_170_792"/>
</filter>
<filter id="filter7_i_170_792" x="201.201" y="283.44" width="100.199" height="65.7" filterUnits="userSpaceOnUse" color-interpolation-filters="sRGB">
<feFlood flood-opacity="0" result="BackgroundImageFix"/>
<feBlend mode="normal" in="SourceGraphic" in2="BackgroundImageFix" result="shape"/>
<feColorMatrix in="SourceAlpha" type="matrix" values="0 0 0 0 0 0 0 0 0 0 0 0 0 0 0 0 0 0 127 0" result="hardAlpha"/>
<feOffset dy="-1"/>
<feGaussianBlur stdDeviation="2.5"/>
<feComposite in2="hardAlpha" operator="arithmetic" k2="-1" k3="1"/>
<feColorMatrix type="matrix" values="0 0 0 0 1 0 0 0 0 1 0 0 0 0 1 0 0 0 0.1 0"/>
<feBlend mode="normal" in2="shape" result="effect1_innerShadow_170_792"/>
</filter>
<filter id="filter8_i_170_792" x="0" y="122.54" width="209.5" height="191.931" filterUnits="userSpaceOnUse" color-interpolation-filters="sRGB">
<feFlood flood-opacity="0" result="BackgroundImageFix"/>
<feBlend mode="normal" in="SourceGraphic" in2="BackgroundImageFix" result="shape"/>
<feColorMatrix in="SourceAlpha" type="matrix" values="0 0 0 0 0 0 0 0 0 0 0 0 0 0 0 0 0 0 127 0" result="hardAlpha"/>
<feOffset dy="-1"/>
<feGaussianBlur stdDeviation="2.5"/>
<feComposite in2="hardAlpha" operator="arithmetic" k2="-1" k3="1"/>
<feColorMatrix type="matrix" values="0 0 0 0 1 0 0 0 0 1 0 0 0 0 1 0 0 0 0.1 0"/>
<feBlend mode="normal" in2="shape" result="effect1_innerShadow_170_792"/>
</filter>
<filter id="filter9_ii_170_792" x="0" y="201.14" width="209.5" height="219.224" filterUnits="userSpaceOnUse" color-interpolation-filters="sRGB">
<feFlood flood-opacity="0" result="BackgroundImageFix"/>
<feBlend mode="normal" in="SourceGraphic" in2="BackgroundImageFix" result="shape"/>
<feColorMatrix in="SourceAlpha" type="matrix" values="0 0 0 0 0 0 0 0 0 0 0 0 0 0 0 0 0 0 127 0" result="hardAlpha"/>
<feOffset dy="2"/>
<feGaussianBlur stdDeviation="1"/>
<feComposite in2="hardAlpha" operator="arithmetic" k2="-1" k3="1"/>
<feColorMatrix type="matrix" values="0 0 0 0 1 0 0 0 0 1 0 0 0 0 1 0 0 0 0.31 0"/>
<feBlend mode="normal" in2="shape" result="effect1_innerShadow_170_792"/>
<feColorMatrix in="SourceAlpha" type="matrix" values="0 0 0 0 0 0 0 0 0 0 0 0 0 0 0 0 0 0 127 0" result="hardAlpha"/>
<feOffset dy="-2"/>
<feGaussianBlur stdDeviation="2"/>
<feComposite in2="hardAlpha" operator="arithmetic" k2="-1" k3="1"/>
<feColorMatrix type="matrix" values="0 0 0 0 0 0 0 0 0 0 0 0 0 0 0 0 0 0 0.17 0"/>
<feBlend mode="normal" in2="effect1_innerShadow_170_792" result="effect2_innerShadow_170_792"/>
</filter>
<linearGradient id="paint0_linear_170_792" x1="292.235" y1="98.1286" x2="169.99" y2="350.743" gradientUnits="userSpaceOnUse">
<stop offset="0.0959596" stop-color="#45108A"/>
<stop offset="1" stop-color="#7C1DC9"/>
</linearGradient>
<linearGradient id="paint1_linear_170_792" x1="355.831" y1="-29.4914" x2="195.46" y2="135.12" gradientUnits="userSpaceOnUse">
<stop offset="0.0959596" stop-color="#45108A"/>
<stop offset="1" stop-color="#902FDF"/>
</linearGradient>
<linearGradient id="paint2_linear_170_792" x1="405.729" y1="-61.4644" x2="206.162" y2="316.979" gradientUnits="userSpaceOnUse">
<stop offset="0.0353535" stop-color="#9F19AB"/>
<stop offset="0.2438" stop-color="#AE25B1"/>
<stop offset="0.6455" stop-color="#D744BF"/>
<stop offset="1" stop-color="#FF39C1"/>
</linearGradient>
<linearGradient id="paint3_linear_170_792" x1="-41.4664" y1="280.942" x2="381.658" y2="280.942" gradientUnits="userSpaceOnUse">
<stop offset="0.0959596" stop-color="#45108A"/>
<stop offset="1" stop-color="#7C1DC9"/>
</linearGradient>
<linearGradient id="paint4_linear_170_792" x1="226.971" y1="280.754" x2="409.102" y2="280.754" gradientUnits="userSpaceOnUse">
<stop offset="0.0353535" stop-color="#9F19AB"/>
<stop offset="0.1641" stop-color="#AE25B1"/>
<stop offset="0.4123" stop-color="#D744BF"/>
<stop offset="0.6313" stop-color="#FF63CE"/>
<stop offset="0.8737" stop-color="#DC48C1"/>
</linearGradient>
<linearGradient id="paint5_linear_170_792" x1="125" y1="189.735" x2="375" y2="189.735" gradientUnits="userSpaceOnUse">
<stop offset="0.0353535" stop-color="#9F19AB"/>
<stop offset="0.1641" stop-color="#AE25B1"/>
<stop offset="0.4123" stop-color="#D744BF"/>
<stop offset="0.6313" stop-color="#FF63CE"/>
<stop offset="0.8737" stop-color="#DC48C1"/>
</linearGradient>
<linearGradient id="paint6_linear_170_792" x1="190" y1="301" x2="387.5" y2="301" gradientUnits="userSpaceOnUse">
<stop offset="0.0353535" stop-color="#9F19AB"/>
<stop offset="0.1641" stop-color="#AE25B1"/>
<stop offset="0.4123" stop-color="#D744BF"/>
<stop offset="0.6313" stop-color="#FF63CE"/>
<stop offset="0.8737" stop-color="#DC48C1"/>
</linearGradient>
<linearGradient id="paint7_linear_170_792" x1="-35.3303" y1="177.801" x2="149.564" y2="177.801" gradientUnits="userSpaceOnUse">
<stop offset="0.0353535" stop-color="#9F19AB"/>
<stop offset="0.1641" stop-color="#AE25B1"/>
<stop offset="0.4123" stop-color="#D744BF"/>
<stop offset="0.6313" stop-color="#FF63CE"/>
<stop offset="0.8737" stop-color="#DC48C1"/>
</linearGradient>
<linearGradient id="paint8_linear_170_792" x1="146.045" y1="374.143" x2="345.587" y2="374.143" gradientUnits="userSpaceOnUse">
<stop offset="0.0353535" stop-color="#197FAB"/>
<stop offset="0.1641" stop-color="#258FB1"/>
<stop offset="0.4123" stop-color="#44BDD7"/>
<stop offset="0.6313" stop-color="#63DAFF"/>
<stop offset="0.8737" stop-color="#48A7DC"/>
</linearGradient>
<linearGradient id="paint9_linear_170_792" x1="146.045" y1="339.343" x2="345.587" y2="339.343" gradientUnits="userSpaceOnUse">
<stop offset="0.0353535" stop-color="#197FAB"/>
<stop offset="0.1641" stop-color="#258FB1"/>
<stop offset="0.4123" stop-color="#44BDD7"/>
<stop offset="0.6313" stop-color="#63DAFF"/>
<stop offset="0.8737" stop-color="#48A7DC"/>
</linearGradient>
<linearGradient id="paint10_linear_170_792" x1="275.942" y1="377.643" x2="325.965" y2="377.643" gradientUnits="userSpaceOnUse">
<stop offset="0.0353535" stop-color="#197FAB"/>
<stop offset="0.1641" stop-color="#258FB1"/>
<stop offset="0.4123" stop-color="#44BDD7"/>
<stop offset="0.6313" stop-color="#63DAFF"/>
<stop offset="0.8737" stop-color="#48A7DC"/>
</linearGradient>
<linearGradient id="paint11_linear_170_792" x1="171.264" y1="358.795" x2="321.059" y2="358.795" gradientUnits="userSpaceOnUse">
<stop offset="0.0353535" stop-color="#197FAB"/>
<stop offset="0.1641" stop-color="#258FB1"/>
<stop offset="0.4123" stop-color="#44BDD7"/>
<stop offset="0.6313" stop-color="#63DAFF"/>
<stop offset="0.8737" stop-color="#48A7DC"/>
</linearGradient>
<linearGradient id="paint12_linear_170_792" x1="243.049" y1="249.844" x2="201.964" y2="264.665" gradientUnits="userSpaceOnUse">
<stop offset="0.0959596" stop-color="#10328A"/>
<stop offset="1" stop-color="#2F56DF"/>
</linearGradient>
<linearGradient id="paint13_linear_170_792" x1="296.519" y1="233.738" x2="246.155" y2="248.327" gradientUnits="userSpaceOnUse">
<stop offset="0.0959596" stop-color="#10328A"/>
<stop offset="1" stop-color="#2F56DF"/>
</linearGradient>
<linearGradient id="paint14_linear_170_792" x1="292.376" y1="324.678" x2="239.285" y2="375.07" gradientUnits="userSpaceOnUse">
<stop offset="0.0959596" stop-color="#10328A"/>
<stop offset="1" stop-color="#2F56DF"/>
</linearGradient>
<linearGradient id="paint15_linear_170_792" x1="208.754" y1="239.068" x2="200.408" y2="239.41" gradientUnits="userSpaceOnUse">
<stop offset="0.0959596" stop-color="#10328A"/>
<stop offset="1" stop-color="#2F56DF"/>
</linearGradient>
<linearGradient id="paint16_linear_170_792" x1="222" y1="306" x2="209.721" y2="394.974" gradientUnits="userSpaceOnUse">
<stop offset="0.0959596" stop-color="#10328A"/>
<stop offset="1" stop-color="#2F56DF"/>
</linearGradient>
<linearGradient id="paint17_linear_170_792" x1="201" y1="229" x2="251.636" y2="348.502" gradientUnits="userSpaceOnUse">
<stop offset="0.0959596" stop-color="#10328A"/>
<stop offset="1" stop-color="#2F76DF"/>
</linearGradient>
<linearGradient id="paint18_linear_170_792" x1="155.562" y1="338.646" x2="208.854" y2="338.646" gradientUnits="userSpaceOnUse">
<stop offset="0.0959596" stop-color="#45108A"/>
<stop offset="1" stop-color="#7C1DC9"/>
</linearGradient>
<linearGradient id="paint19_linear_170_792" x1="0.182135" y1="322.996" x2="209.693" y2="322.996" gradientUnits="userSpaceOnUse">
<stop offset="0.0959596" stop-color="#45108A"/>
<stop offset="1" stop-color="#7C1DC9"/>
</linearGradient>
<linearGradient id="paint20_linear_170_792" x1="127" y1="41.5" x2="51.7232" y2="225.928" gradientUnits="userSpaceOnUse">
<stop offset="0.0959596" stop-color="#45108A"/>
<stop offset="1" stop-color="#902FDF"/>
</linearGradient>
<linearGradient id="paint21_linear_170_792" x1="96.5933" y1="202.151" x2="110.741" y2="419.303" gradientUnits="userSpaceOnUse">
<stop offset="0.0959596" stop-color="#45108A"/>
<stop offset="1" stop-color="#7C1DC9"/>
</linearGradient>
<linearGradient id="paint22_linear_170_792" x1="-1146.9" y1="310.95" x2="198.236" y2="310.95" gradientUnits="userSpaceOnUse">
<stop offset="0.0959596" stop-color="#45108A"/>
<stop offset="1" stop-color="#7C1DC9"/>
</linearGradient>
<linearGradient id="paint23_linear_170_792" x1="109.527" y1="162.872" x2="123.169" y2="241.567" gradientUnits="userSpaceOnUse">
<stop offset="0.0959596" stop-color="#45108A"/>
<stop offset="1" stop-color="#7C1DC9"/>
</linearGradient>
</defs>
</svg>
