<svg width="237" height="237" viewBox="0 0 237 237" fill="none" xmlns="http://www.w3.org/2000/svg">
<circle cx="118.5" cy="118.5" r="118.5" fill="white"/>
<path d="M194.878 124.486L195.378 119.101L218.797 121.275L218.298 126.66L194.878 124.486Z" fill="#C912B2"/>
<path d="M211.934 154.396L210.091 159.481L188.009 151.477L190.004 145.972L205.498 143.418L192.621 138.751L194.464 133.667L216.486 141.649L214.48 147.184L199.028 149.719L211.934 154.396Z" fill="#C912B2"/>
<path d="M197.617 179.984L194.197 184.579L179.977 164.023L183.034 159.916L206.558 167.971L203.157 172.54L188.809 167.485L197.617 179.984Z" fill="#C912B2"/>
<path d="M172.476 196.199L180.122 190.289L177.949 187.478L171.746 192.273L168.439 187.995L174.642 183.2L172.371 180.263L164.726 186.174L161.418 181.895L173.342 172.677L187.688 191.234L175.783 200.478L172.476 196.199Z" fill="#C912B2"/>
<path d="M149.656 187.745C150.349 187.467 151.081 187.288 151.854 187.208C152.598 187.116 153.357 187.145 154.13 187.295C155.477 187.559 156.666 188.116 157.697 188.967C158.735 189.838 159.517 190.926 160.041 192.233L155.022 194.246C154.783 193.652 154.468 193.239 154.076 193.005C153.691 192.792 153.376 192.665 153.13 192.626C152.679 192.531 152.241 192.557 151.817 192.704C151.394 192.851 151.019 193.093 150.695 193.43C150.465 193.66 150.307 193.896 150.22 194.138C150.113 194.388 150.052 194.608 150.037 194.798C150.009 195.016 150.017 195.208 150.061 195.374C150.105 195.54 150.146 195.673 150.186 195.772C150.226 195.871 150.287 195.996 150.371 196.146C150.454 196.297 150.581 196.441 150.751 196.58C150.902 196.726 151.098 196.843 151.34 196.93C151.57 197.044 151.851 197.115 152.184 197.143C152.441 197.154 152.715 197.148 153.004 197.124C153.273 197.108 153.566 197.094 153.883 197.082C154.442 197.042 155.028 197.013 155.642 196.997C156.256 196.981 156.898 197.033 157.568 197.156C158.435 197.313 159.238 197.623 159.975 198.086C160.712 198.549 161.341 199.113 161.86 199.778C162.36 200.451 162.739 201.195 162.998 202.011C163.244 202.855 163.326 203.718 163.244 204.602C163.157 205.418 162.946 206.181 162.61 206.89C162.274 207.6 161.835 208.224 161.293 208.763C160.758 209.322 160.127 209.782 159.398 210.144C158.67 210.505 157.88 210.741 157.028 210.853C156.204 210.977 155.406 210.963 154.633 210.814C153.869 210.684 153.157 210.429 152.499 210.049C151.829 209.697 151.241 209.232 150.733 208.654C150.225 208.076 149.825 207.421 149.531 206.689L154.55 204.675C154.733 205.131 155.008 205.388 155.377 205.447C155.726 205.514 156.021 205.534 156.262 205.506C156.302 205.49 156.405 205.46 156.571 205.416C156.726 205.4 156.894 205.333 157.076 205.214C157.246 205.122 157.407 204.978 157.557 204.78C157.715 204.601 157.806 204.369 157.83 204.084C157.861 203.704 157.756 203.355 157.514 203.038C157.28 202.742 156.975 202.554 156.598 202.475C156.257 202.428 155.891 202.402 155.499 202.399C155.115 202.415 154.71 202.439 154.287 202.471C153.91 202.507 153.53 202.533 153.146 202.549C152.742 202.574 152.33 202.578 151.91 202.562C150.365 202.493 148.996 202.03 147.802 201.176C146.589 200.329 145.701 199.203 145.137 197.797C144.581 196.411 144.449 194.993 144.741 193.543C145.013 192.101 145.683 190.821 146.752 189.702C147.171 189.258 147.628 188.88 148.123 188.566C148.61 188.233 149.121 187.959 149.656 187.745Z" fill="#C912B2"/>
<path d="M126.725 218.001L126.077 212.6L130.557 212.062L128.394 194.047L133.763 193.403L135.926 211.417L140.374 210.883L141.022 216.285L126.725 218.001Z" fill="#C912B2"/>
<path d="M111.815 194.306L117.194 194.868L114.75 218.261L109.371 217.699L111.815 194.306Z" fill="#C912B2"/>
<path d="M81.8428 211.01L76.7795 209.11L85.031 187.119L90.5137 189.176L92.8927 204.697L97.7042 191.874L102.768 193.774L94.5385 215.705L89.0258 213.636L86.6655 198.157L81.8428 211.01Z" fill="#C912B2"/>
<path d="M57.2865 183.594L65.4436 173.278L69.7109 176.652L69.3536 177.103C69.9545 177.307 70.5391 177.565 71.1073 177.878C71.6455 178.195 72.1572 178.545 72.6425 178.929C73.8307 179.868 74.8151 181.014 75.5958 182.365C76.3765 183.717 76.8615 185.202 77.0506 186.82C77.2398 188.438 77.1171 189.986 76.6824 191.465C76.2178 192.947 75.5157 194.282 74.5763 195.47C73.6369 196.658 72.4998 197.649 71.1649 198.443C69.8134 199.224 68.3285 199.709 66.7104 199.898C65.0922 200.087 63.5355 199.958 62.0403 199.51C60.5451 199.062 59.2035 198.368 58.0153 197.429C56.8272 196.489 55.8428 195.344 55.0621 193.992C54.2814 192.641 53.7964 191.156 53.6072 189.538L59.0011 188.907C59.1027 189.776 59.3704 190.572 59.8044 191.296C60.2251 192.037 60.7534 192.659 61.3893 193.161C62.0252 193.664 62.752 194.035 63.5696 194.273C64.3741 194.529 65.2108 194.605 66.0798 194.504C66.9488 194.402 67.7536 194.141 68.4942 193.72C69.2347 193.3 69.8564 192.771 70.3592 192.136C70.862 191.5 71.2327 190.773 71.4712 189.955C71.7097 189.138 71.7782 188.294 71.6766 187.425C71.5855 186.646 71.3715 185.919 71.0345 185.245C70.6675 184.574 70.2193 183.989 69.69 183.488C69.1308 182.992 68.5071 182.594 67.8191 182.295C67.131 181.995 66.4054 181.83 65.6423 181.797L64.9079 182.726L68.5979 185.644L65.2437 189.886L57.2865 183.594Z" fill="#C912B2"/>
<path d="M25.7206 154.063L23.5516 148.935L44.6776 138.505L46.7843 143.486L38.167 147.756L48.2802 147.023L50.3869 152.004L42.5378 159.076L51.9825 155.776L54.1016 160.786L31.8537 168.563L29.6847 163.435L41.2349 152.956L25.7206 154.063Z" fill="#C912B2"/>
<path d="M42.8196 122.641L40.065 123.818L40.7198 131.181L43.6417 131.884L44.1491 137.59L20.0447 131.702L19.5912 126.602L42.315 116.967L42.8196 122.641ZM35.1687 129.811L34.8313 126.018L29.3221 128.371L35.1687 129.811Z" fill="#C912B2"/>
<path d="M20.2347 103.192C20.6218 101.681 21.2728 100.321 22.1875 99.1103C23.1064 97.8791 24.1866 96.8757 25.4282 96.1001C26.6739 95.3036 28.0434 94.76 29.5367 94.4694C31.0341 94.1579 32.5675 94.158 34.1368 94.4698C35.6852 94.7774 37.0833 95.3488 38.3312 96.184C39.5581 97.015 40.5844 98.0345 41.4102 99.2426C42.2401 100.43 42.8359 101.755 43.1976 103.219C43.5383 104.679 43.5947 106.202 43.3666 107.788L42.3128 113.092L19.1495 108.49L20.2033 103.186L20.2347 103.192ZM38.0309 106.728C38.1093 105.895 38.0497 105.1 37.8521 104.343C37.6377 103.561 37.3189 102.867 36.8955 102.261C36.4554 101.63 35.9088 101.097 35.2555 100.663C34.6023 100.228 33.8781 99.9321 33.083 99.7742C32.2669 99.612 31.4636 99.6047 30.6731 99.7521C29.8616 99.8954 29.1214 100.173 28.4525 100.583C27.7627 100.99 27.1714 101.503 26.6785 102.123C26.1647 102.739 25.7848 103.446 25.539 104.246L38.0309 106.728Z" fill="#C912B2"/>
<path d="M37.0862 71.4167L32.7025 80.0292L35.868 81.6404L39.4243 74.6534L44.2439 77.1066L40.6876 84.0936L43.9957 85.7774L48.3794 77.1648L53.199 79.6179L46.3622 93.0501L25.4582 82.4102L32.2665 68.9635L37.0862 71.4167Z" fill="#C912B2"/>
<path d="M71.4727 59.3655C70.8737 59.8113 70.2111 60.1716 69.4847 60.4463C68.7883 60.7253 68.0474 60.8912 67.2621 60.9437C65.8922 61.0326 64.6002 60.7975 63.3863 60.2384C62.1596 59.6622 61.1259 58.8093 60.2852 57.6798L64.6234 54.4509C65.0056 54.9643 65.4161 55.2836 65.8551 55.409C66.2814 55.5172 66.6183 55.559 66.8659 55.5343C67.3268 55.5103 67.7433 55.3732 68.1154 55.1228C68.4875 54.8725 68.7874 54.5429 69.015 54.1341C69.1782 53.8531 69.2709 53.5846 69.2932 53.3287C69.3325 53.0601 69.3355 52.8318 69.3021 52.644C69.273 52.4262 69.2161 52.2426 69.1313 52.0929C69.0465 51.9433 68.9723 51.8257 68.9086 51.7401C68.8449 51.6545 68.7535 51.5497 68.6345 51.4255C68.5155 51.3013 68.3559 51.1941 68.1557 51.1037C67.9726 51.0007 67.7531 50.938 67.4972 50.9157C67.2456 50.8636 66.9555 50.8668 66.6267 50.9254C66.3748 50.9799 66.1121 51.0557 65.8387 51.1529C65.5824 51.2373 65.3026 51.3259 64.9993 51.4186C64.4696 51.6001 63.91 51.7773 63.3206 51.9501C62.7311 52.1229 62.0971 52.2357 61.4185 52.2887C60.5393 52.3581 59.6842 52.2632 58.8531 52.0042C58.0221 51.7451 57.2704 51.3605 56.5981 50.8503C55.943 50.3274 55.3863 49.7045 54.9282 48.9818C54.4744 48.2292 54.1744 47.4153 54.0283 46.5401C53.9032 45.7289 53.9125 44.9375 54.0562 44.1658C54.1998 43.394 54.4648 42.6782 54.8512 42.0183C55.2249 41.3412 55.7178 40.735 56.3299 40.1996C56.942 39.6643 57.6454 39.2338 58.4402 38.9082C59.2051 38.5781 59.9803 38.3868 60.7655 38.3342C61.538 38.2645 62.2909 38.3292 63.024 38.5281C63.7615 38.6972 64.4495 38.9963 65.088 39.4253C65.7264 39.8543 66.2813 40.3854 66.7525 41.0186L62.4143 44.2475C62.1213 43.8539 61.7892 43.6756 61.4179 43.7127C61.0636 43.737 60.7733 43.7935 60.5468 43.8823C60.5126 43.9078 60.4207 43.9629 60.271 44.0477C60.1258 44.1026 59.9803 44.2109 59.8346 44.3725C59.6934 44.5042 59.5754 44.6851 59.4807 44.9152C59.3732 45.1281 59.3446 45.3755 59.3947 45.6573C59.4616 46.033 59.6525 46.343 59.9673 46.5874C60.2694 46.8146 60.6125 46.9183 60.9966 46.8984C61.3381 46.8569 61.6989 46.7879 62.079 46.6911C62.4463 46.5772 62.8308 46.4507 63.2324 46.3113C63.587 46.1803 63.948 46.0579 64.3153 45.9441C64.6998 45.8175 65.097 45.708 65.5069 45.6156C67.0185 45.2884 68.4603 45.3854 69.8323 45.9066C71.2214 46.4152 72.3681 47.277 73.2725 48.492C74.1641 49.69 74.6541 51.0272 74.7426 52.5038C74.8482 53.9677 74.5273 55.3767 73.78 56.7307C73.4879 57.2673 73.1426 57.7503 72.7443 58.1798C72.3586 58.6264 71.9348 59.0216 71.4727 59.3655Z" fill="#C912B2"/>
<path d="M87.6051 48.9801L82.6402 51.1239L73.3165 29.5309L78.2814 27.3871L87.6051 48.9801Z" fill="#C912B2"/>
<path d="M107.422 19.3633L112.931 18.5513L117.722 41.6193L112.372 42.4079L110.402 32.9945L108.573 42.9679L103.223 43.7565L98.3477 34.3832L99.1705 44.3538L93.7887 45.1471L91.8467 21.6593L97.3552 20.8473L104.599 34.6586L107.422 19.3633Z" fill="#C912B2"/>
<path d="M138.37 30.6474C138.153 31.9738 137.696 33.1854 136.999 34.2821C136.326 35.3611 135.475 36.2707 134.446 37.0107C133.439 37.7543 132.313 38.2948 131.069 38.6322C129.829 38.9487 128.543 39.0093 127.214 38.8139L126.611 42.5091L121.273 41.6385L125.055 18.4569L130.392 19.3275C131.715 19.5649 132.913 20.0412 133.985 20.7565C135.057 21.4717 135.953 22.3419 136.672 23.367C137.412 24.3956 137.928 25.5389 138.22 26.797C138.536 28.0374 138.586 29.3209 138.37 30.6474ZM128.084 33.4765C128.677 33.5516 129.245 33.5145 129.788 33.3654C130.356 33.1986 130.86 32.9566 131.301 32.6394C131.745 32.3012 132.115 31.886 132.412 31.394C132.729 30.9054 132.936 30.3663 133.032 29.7768C133.128 29.1872 133.104 28.6104 132.958 28.0462C132.833 27.4855 132.612 26.9848 132.295 26.5439C131.981 26.0821 131.58 25.6924 131.092 25.375C130.627 25.0399 130.102 24.8137 129.516 24.6965L128.084 33.4765Z" fill="#C912B2"/>
<path d="M154.927 51.1698L142.26 45.2463L152.223 23.9406L157.122 26.2314L149.449 42.6382L157.218 46.271L154.927 51.1698Z" fill="#C912B2"/>
<path d="M183.887 49.9882L176.553 43.6957L174.24 46.3916L180.19 51.4964L176.669 55.6009L170.719 50.4961L168.302 53.3134L175.636 59.6059L172.115 63.7104L160.676 53.8966L175.949 36.0942L187.409 45.8837L183.887 49.9882Z" fill="#C912B2"/>
<path d="M195.77 75.1315C196.858 74.6375 197.811 74.4154 198.631 74.4652C199.459 74.5344 200.16 74.8136 200.733 75.3029C201.326 75.7833 201.795 76.4023 202.139 77.1599C202.483 77.9174 202.636 78.6679 202.599 79.4111C202.59 80.165 202.339 80.8765 201.846 81.5454C201.353 82.2144 200.563 82.7958 199.475 83.2898C198.406 83.7749 197.458 83.9829 196.63 83.9137C195.802 83.8445 195.092 83.5697 194.499 83.0893C193.914 82.6282 193.45 82.0189 193.106 81.2614C192.762 80.5038 192.605 79.7437 192.633 78.981C192.662 78.2183 192.922 77.5024 193.415 76.8335C193.917 76.1839 194.702 75.6166 195.77 75.1315Z" fill="#C912B2"/>
</svg>
